<svg version="1.1" id="Layer_1" xmlns="http://www.w3.org/2000/svg" xmlns:xlink="http://www.w3.org/1999/xlink" x="0px" y="0px"
	 width="100%" viewBox="0 0 1080 1080" enable-background="new 0 0 1080 1080" xml:space="preserve">
<path fill="#000000" opacity="1.000000" stroke="none" 
	d="
M600.000000,1081.000000 
	C400.023010,1081.000000 200.546036,1081.000000 1.034532,1081.000000 
	C1.034532,721.064575 1.034532,361.129120 1.034532,1.096845 
	C360.893860,1.096845 720.787720,1.096845 1080.840820,1.096845 
	C1080.840820,360.999939 1080.840820,720.999939 1080.840820,1081.000000 
	C920.795349,1081.000000 760.647644,1081.000000 600.000000,1081.000000 
M293.572113,595.970154 
	C293.745056,595.658630 293.917999,595.347046 294.011414,595.001282 
	C294.011414,595.001282 294.067749,595.067017 294.755127,594.832092 
	C295.529938,593.571350 296.304749,592.310547 297.005646,590.997559 
	C297.005646,590.997559 297.066833,591.063721 297.852570,591.026794 
	C301.187775,586.536133 304.447174,582.014038 304.010468,576.002136 
	C304.010468,576.002136 304.023193,576.086365 304.870850,576.024231 
	C305.279388,573.678284 305.687958,571.332275 306.005585,568.999451 
	C306.005585,568.999451 306.020111,569.090210 306.882660,568.992188 
	C307.922729,563.270691 309.433044,557.585632 309.880219,551.818176 
	C310.404175,545.060364 310.002808,538.230713 310.002808,531.626831 
	C312.094147,530.666382 313.865723,529.852783 315.997192,528.873901 
	C315.997192,545.455078 315.740112,561.563660 316.138367,577.656067 
	C316.275482,583.195862 317.831940,588.749939 319.211639,594.177612 
	C319.594940,595.685486 321.667908,596.763977 322.995148,598.790710 
	C323.645264,599.546204 324.295410,600.301636 324.996155,601.761963 
	C326.653809,603.187378 328.311462,604.612793 330.054199,606.555786 
	C330.347260,606.721985 330.640320,606.888123 331.157440,607.696655 
	C332.838684,608.649109 334.519958,609.601501 336.678925,611.116333 
	C338.185730,615.249939 339.370941,619.537537 341.262604,623.486816 
	C346.012878,633.403931 350.831604,643.306641 356.142120,652.928467 
	C358.405914,657.030090 361.964905,660.416931 364.952332,664.046570 
	C364.952332,664.046570 364.870148,664.062805 364.988708,664.834412 
	C370.914459,671.973450 376.728760,679.210205 382.844086,686.182983 
	C384.379242,687.933411 386.880524,688.836487 388.953278,690.047180 
	C388.953278,690.047180 388.871490,690.062439 388.991913,690.767822 
	C391.307159,692.555176 393.622406,694.342529 395.954102,696.047729 
	C395.954102,696.047729 395.872070,696.065002 395.992554,696.785706 
	C397.251251,697.949280 398.352081,699.380798 399.795380,700.230957 
	C406.856476,704.390320 414.008881,708.394714 421.290558,712.730957 
	C421.290558,712.730957 421.573181,712.882690 421.969086,713.430908 
	C430.048157,716.845398 437.929474,720.896118 446.264526,723.487305 
	C453.897858,725.860413 461.590363,729.112427 470.402039,728.010498 
	C470.402039,728.010498 470.852478,728.034363 471.265625,728.776917 
	C476.943542,729.219238 482.618958,729.985352 488.299957,730.029053 
	C497.165131,730.097351 506.034119,729.677063 514.901001,729.444336 
	C514.988098,729.442078 515.068298,729.176392 515.594299,729.012268 
	C515.594299,729.012268 516.005676,728.847412 516.888245,728.986694 
	C520.300232,728.658569 523.840088,728.799561 527.099609,727.911682 
	C535.838013,725.531372 544.456482,722.710388 553.019836,720.049683 
	C553.019836,720.049683 553.020508,720.153442 553.724182,720.013672 
	C554.523621,719.697693 555.322998,719.381653 556.023132,719.051880 
	C556.023132,719.051880 556.026001,719.152161 556.775940,719.013489 
	C558.891479,718.030640 561.007019,717.047852 563.025208,716.051086 
	C563.025208,716.051086 563.028137,716.149353 563.661133,716.011658 
	C564.148560,715.695740 564.635925,715.379822 565.025208,715.050171 
	C565.025208,715.050171 565.027954,715.149170 565.661133,715.011780 
	C566.148621,714.695801 566.636047,714.379822 567.025208,714.050110 
	C567.025208,714.050110 567.028015,714.149353 567.661255,714.011780 
	C568.148560,713.695618 568.635864,713.379456 569.025269,713.049866 
	C569.025269,713.049866 569.028320,713.148682 569.661621,713.011780 
	C570.148682,712.695557 570.635803,712.379272 571.025024,712.049683 
	C571.025024,712.049683 571.028076,712.148315 571.661499,712.011719 
	C572.148499,711.695374 572.635498,711.379028 573.023743,711.049133 
	C573.023743,711.049133 573.026428,711.148804 573.672485,711.011414 
	C574.171875,710.684753 574.671204,710.358093 575.585876,710.021545 
	C575.585876,710.021545 575.968323,709.859375 576.697693,709.988770 
	C579.505859,708.013794 582.314087,706.038818 585.025208,704.050049 
	C585.025208,704.050049 585.028015,704.148071 585.660767,704.010986 
	C586.148682,703.695862 586.636658,703.380737 587.042419,703.048767 
	C587.042419,703.048767 587.060730,703.130615 587.712952,703.009521 
	C588.516846,702.361938 589.320740,701.714294 590.042053,701.047241 
	C590.042053,701.047241 590.062683,701.129517 590.728333,701.009338 
	C591.860291,700.028381 592.992249,699.047424 594.041870,698.047852 
	C594.041870,698.047852 594.061646,698.130005 594.763794,698.007996 
	C595.232605,697.348999 595.701477,696.690002 596.590759,696.021484 
	C596.590759,696.021484 596.978882,695.859375 597.529602,695.945007 
	C597.732117,695.645874 597.934631,695.346741 598.048889,695.041931 
	C598.048889,695.041931 598.062988,695.129211 598.772949,695.008362 
	C600.891968,693.026550 603.010986,691.044739 605.048096,689.048462 
	C605.048096,689.048462 605.062256,689.130432 605.757751,689.008728 
	C606.215271,688.359619 606.672852,687.710449 607.048584,687.047363 
	C607.048584,687.047363 607.062988,687.129089 607.758911,687.008484 
	C610.549072,684.026489 613.339233,681.044495 616.047485,678.047058 
	C616.047485,678.047058 616.062988,678.128967 616.780762,678.008423 
	C619.230408,675.026550 621.680054,672.044678 624.047424,669.041138 
	C624.047424,669.041138 624.067078,669.123962 624.728577,668.820557 
	C625.529175,667.567749 626.329712,666.314941 627.048157,665.046387 
	C627.048157,665.046387 627.064941,665.128296 627.804321,665.005859 
	C628.246826,664.023987 628.689331,663.042114 629.049866,662.046448 
	C629.049866,662.046448 629.064880,662.128174 629.787537,662.007385 
	C633.738586,658.058411 637.000793,653.697205 638.049683,648.046692 
	C638.049683,648.046692 638.065063,648.128479 638.859619,647.999390 
	C639.904663,646.490051 641.155212,645.082153 641.958984,643.453674 
	C645.351501,636.580078 647.083435,628.690308 654.000854,624.026611 
	C654.000854,624.026611 654.022156,624.103027 654.560303,623.945740 
	C654.741394,623.632080 654.922424,623.318359 654.982178,622.988586 
	C654.982178,622.988586 654.960022,623.108948 655.690063,623.007629 
	C656.312012,622.680664 656.933960,622.353638 658.000793,621.951599 
	C658.343872,621.484558 658.686890,621.017517 659.510132,619.998718 
	C661.037476,617.534119 662.564819,615.069519 664.086731,612.547546 
	C664.086731,612.547546 664.029541,612.555054 664.658936,612.038757 
	C670.558655,605.677429 667.173950,597.907532 667.859253,590.757141 
	C667.878540,590.555725 667.460388,590.336365 667.300415,590.090210 
	C662.626709,582.898499 658.454224,575.617126 659.870972,566.417847 
	C660.133606,564.712769 658.697083,562.745972 658.005005,560.039429 
	C657.618835,554.690918 657.232666,549.342468 656.991516,543.073547 
	C656.765015,538.657959 656.890198,534.186340 656.199341,529.844666 
	C655.658508,526.445740 654.023193,523.232605 653.023010,519.892395 
	C651.439270,514.603577 650.820618,508.834045 648.299805,504.056000 
	C642.330872,492.742645 635.752563,481.720947 628.862976,470.937592 
	C625.994446,466.447784 621.705811,462.865295 618.048340,458.952057 
	C618.048340,458.952057 618.130249,458.937836 618.008606,458.242310 
	C617.359497,457.784760 616.710388,457.327240 616.047241,456.951416 
	C616.047241,456.951416 616.128906,456.936951 616.007690,456.220367 
	C613.692444,454.103882 611.377136,451.987366 609.047852,449.952454 
	C609.047852,449.952454 609.129456,449.938660 609.007629,449.243256 
	C608.358765,448.785431 607.709839,448.327576 607.047852,447.951324 
	C607.047852,447.951324 607.129517,447.938507 607.008179,447.242981 
	C606.359375,446.785065 605.710510,446.327118 605.048462,445.950836 
	C605.048462,445.950836 605.130127,445.937866 605.008911,445.242218 
	C604.359924,444.784485 603.710999,444.326721 603.041931,443.951294 
	C603.041931,443.951294 603.124573,443.932617 602.864075,443.322906 
	C601.928833,442.838898 600.993530,442.354919 600.046753,441.952118 
	C600.046753,441.952118 600.127869,441.940277 600.008606,441.243927 
	C599.359558,440.785645 598.710510,440.327332 598.046448,439.951080 
	C598.046448,439.951080 598.128357,439.935181 598.007507,439.214142 
	C596.692383,438.432709 595.377197,437.651276 594.041626,436.952118 
	C594.041626,436.952118 594.124207,436.933105 593.846680,436.302826 
	C591.584534,434.825165 589.322449,433.347504 587.041748,431.951569 
	C587.041748,431.951569 587.123840,431.934631 586.867493,431.341278 
	C586.253418,431.177063 585.639282,431.012817 585.022461,430.949280 
	C585.022461,430.949280 585.122314,430.935760 584.838501,430.293365 
	C582.245972,428.818512 579.653503,427.343658 577.040894,425.950958 
	C577.040894,425.950958 577.123413,425.932404 576.814453,425.288849 
	C575.882507,425.144104 574.950500,424.999359 574.015076,424.967407 
	C574.015076,424.967407 574.127625,424.960510 573.947205,424.438599 
	C573.643677,424.245422 573.340088,424.052246 573.033020,423.950226 
	C573.033020,423.950226 573.123047,423.935547 572.867737,423.341705 
	C572.253601,423.177032 571.639526,423.012360 571.022644,422.948334 
	C571.022644,422.948334 571.122437,422.934723 570.801636,422.276794 
	C566.546509,420.468719 562.291382,418.660645 558.028625,416.945465 
	C558.028625,416.945465 558.121277,416.934875 557.813110,416.287750 
	C556.878540,416.241638 555.943970,416.195526 554.585083,415.988647 
	C554.585083,415.988647 554.132080,415.962585 553.847351,415.306702 
	C552.576721,414.821625 551.306091,414.336548 550.028198,413.945435 
	C550.028198,413.945435 550.121826,413.934570 549.814941,413.289398 
	C548.882324,413.141083 547.949707,412.992767 547.016602,412.950348 
	C547.016602,412.950348 547.121521,412.935974 546.770447,412.249420 
	C540.515991,410.882446 534.261475,409.515503 527.593750,407.987213 
	C527.593750,407.987213 527.150574,407.966339 526.740540,407.227966 
	C519.101624,406.485443 511.477509,405.424896 503.820618,405.068787 
	C489.334839,404.395020 474.830872,404.768158 460.659790,408.114258 
	C453.589752,409.783600 446.796417,412.624725 439.969757,414.946655 
	C439.969757,414.946655 439.962341,414.854492 439.163483,414.987457 
	C433.401703,417.637238 427.639893,420.287048 421.975159,422.950287 
	C421.975159,422.950287 421.972168,422.852356 421.338654,422.988464 
	C420.851898,423.304932 420.365143,423.621399 419.965790,423.947815 
	C419.965790,423.947815 419.956787,423.860352 419.149719,423.987640 
	C413.162781,422.324707 407.262054,420.169434 401.170715,419.102570 
	C388.926453,416.958069 376.517944,415.832214 364.172974,418.099854 
	C358.339630,419.171417 352.704865,421.324127 346.268616,423.001984 
	C345.490631,423.313629 344.712646,423.625275 343.174744,423.993011 
	C340.855957,425.136414 338.537140,426.279816 335.684784,427.851990 
	C334.434570,428.880096 333.184357,429.908234 331.229156,430.995605 
	C327.283020,433.745514 323.719055,436.785004 322.129456,442.005371 
	C321.094360,443.723358 319.451447,445.335693 319.131226,447.177948 
	C317.861816,454.480408 316.575378,461.827820 316.112946,469.209778 
	C315.605011,477.318298 315.997192,485.483185 315.997192,494.115967 
	C313.208313,494.115967 310.698120,494.115967 308.467499,494.115967 
	C306.629913,484.264252 310.137634,474.752136 306.051270,465.652954 
	C304.650085,462.532959 304.501556,458.804260 304.034332,455.319672 
	C302.661316,445.080139 295.613098,438.174530 289.170715,431.241333 
	C286.234070,428.080872 281.111877,426.951202 276.992401,425.006348 
	C276.992401,425.006348 277.098572,424.997955 276.880676,424.365845 
	C276.244995,424.209564 275.609314,424.053284 274.989685,424.005371 
	C274.989685,424.005371 275.098480,423.992523 274.814240,423.297028 
	C272.722076,422.513428 270.647583,421.678162 268.534882,420.954468 
	C253.649002,415.855408 238.521973,415.985565 223.383194,419.371857 
	C219.285294,420.288483 215.464523,422.444061 211.332962,423.834076 
	C211.332962,423.834076 211.104080,423.975830 210.423172,424.000244 
	C209.917053,424.325653 209.410934,424.651062 208.995667,424.989960 
	C208.995667,424.989960 209.005966,424.898712 208.264526,424.992126 
	C206.484085,425.975739 204.703644,426.959351 202.991486,427.986755 
	C202.991486,427.986755 202.964050,427.910400 202.254852,427.993988 
	C200.479736,429.306824 198.704605,430.619659 196.995163,432.002319 
	C196.995163,432.002319 196.937866,431.926849 196.240082,431.994904 
	C194.134903,434.310303 192.029739,436.625702 189.996384,439.001465 
	C189.996384,439.001465 189.934814,438.931274 189.209854,438.997009 
	C184.002686,444.558014 179.872116,450.542755 178.867523,458.493469 
	C178.154022,464.140472 175.260574,469.631042 175.178055,475.218567 
	C174.777481,502.344360 174.996674,529.479309 174.998978,556.611023 
	C174.999069,557.775940 174.800003,558.997375 175.076126,560.096436 
	C176.702988,566.572510 177.730530,573.330811 180.366943,579.380920 
	C182.546936,584.383606 186.672394,588.538513 189.996109,592.998962 
	C189.996109,592.998962 189.924591,593.058167 189.994888,593.757874 
	C191.645279,595.198120 193.295685,596.638367 194.997482,598.005920 
	C194.997482,598.005920 194.925247,598.057983 194.996521,598.786316 
	C196.324722,599.556030 197.652924,600.325684 198.984650,601.021362 
	C198.984650,601.021362 198.911346,601.032410 198.994736,601.763794 
	C200.313950,602.537415 201.633179,603.311035 202.991440,604.006775 
	C202.991440,604.006775 202.921249,604.058228 203.144318,604.668579 
	C203.767044,604.815247 204.389755,604.961914 204.997864,605.023132 
	C204.997864,605.023132 204.913666,605.043884 205.136093,605.658264 
	C205.759613,605.808167 206.383133,605.958130 206.995804,606.033569 
	C206.995804,606.033569 206.924683,606.058350 207.205856,606.727356 
	C208.156998,606.849243 209.108139,606.971130 210.028732,606.972473 
	C210.028732,606.972473 209.905853,606.991272 210.178848,607.694031 
	C218.603058,611.672180 227.391144,613.778442 237.720764,612.950195 
	C242.548828,612.647888 247.376907,612.345581 252.560471,612.786133 
	C260.595795,613.671875 268.080872,611.960510 274.998810,608.001038 
	C274.998810,608.001038 274.987823,608.094543 275.754425,608.015991 
	C278.200317,606.682861 280.646210,605.349792 282.996582,603.999695 
	C282.996582,603.999695 282.978638,604.095093 283.635498,604.029968 
	C284.113464,603.707703 284.591431,603.385437 285.003326,603.002136 
	C285.003326,603.002136 285.052185,603.077576 285.779724,603.035339 
	C287.209503,601.711060 288.639313,600.386780 290.001831,599.014954 
	C290.001831,599.014954 290.032532,599.091370 290.575073,598.968445 
	C290.747131,598.656494 290.919189,598.344482 291.018311,598.018250 
	C291.018311,598.018250 291.032593,598.091187 291.576202,597.967773 
	C291.748199,597.654663 291.920166,597.341492 292.018707,597.018738 
	C292.018707,597.018738 292.028351,597.092163 292.573700,596.969116 
	C292.746490,596.655579 292.919312,596.342041 293.018707,596.018738 
	C293.018707,596.018738 293.028687,596.092041 293.572113,595.970154 
z"/>
<path fill="#FFEFD5" opacity="1.000000" stroke="none" 
	d="
M527.150574,407.966339 
	C527.150574,407.966339 527.593750,407.987213 528.058777,408.322327 
	C534.723022,410.083588 540.922302,411.509796 547.121521,412.935974 
	C547.121521,412.935974 547.016602,412.950348 547.202637,413.201691 
	C548.299744,413.613525 549.210754,413.774048 550.121826,413.934570 
	C550.121826,413.934570 550.028198,413.945435 550.160400,414.236267 
	C551.572388,415.005615 552.852234,415.484100 554.132080,415.962585 
	C554.132080,415.962585 554.585083,415.988647 555.030701,416.312164 
	C556.357971,416.735413 557.239624,416.835144 558.121277,416.934875 
	C558.121277,416.934875 558.028625,416.945465 558.157104,417.234497 
	C562.564514,419.327271 566.843445,421.131012 571.122437,422.934723 
	C571.122437,422.934723 571.022644,422.948334 571.175659,423.183960 
	C571.926819,423.591583 572.524902,423.763580 573.123047,423.935547 
	C573.123047,423.935547 573.033020,423.950226 573.140137,424.154907 
	C573.540710,424.559875 573.834167,424.760193 574.127625,424.960510 
	C574.127625,424.960510 574.015076,424.967407 574.207397,425.210938 
	C575.307678,425.613739 576.215515,425.773071 577.123413,425.932404 
	C577.123413,425.932404 577.040894,425.950958 577.068115,426.266632 
	C579.770996,428.033447 582.446655,429.484589 585.122314,430.935760 
	C585.122314,430.935760 585.022461,430.949280 585.176270,431.184570 
	C585.927979,431.591431 586.525940,431.763031 587.123840,431.934631 
	C587.123840,431.934631 587.041748,431.951569 587.067810,432.264221 
	C589.437317,434.028992 591.780762,435.481049 594.124207,436.933105 
	C594.124207,436.933105 594.041626,436.952118 594.058472,437.284729 
	C595.426331,438.389954 596.777344,439.162567 598.128357,439.935181 
	C598.128357,439.935181 598.046448,439.951080 598.066956,440.254883 
	C598.767578,441.019196 599.447754,441.479736 600.127869,441.940277 
	C600.127869,441.940277 600.046753,441.952118 600.081055,442.277100 
	C601.118469,443.045593 602.121521,443.489105 603.124573,443.932617 
	C603.124573,443.932617 603.041931,443.951294 603.062134,444.257385 
	C603.764954,445.021637 604.447510,445.479736 605.130127,445.937866 
	C605.130127,445.937866 605.048462,445.950836 605.066284,446.256592 
	C605.765930,447.021088 606.447693,447.479797 607.129517,447.938507 
	C607.129517,447.938507 607.047852,447.951324 607.067200,448.256531 
	C607.767517,449.020691 608.448486,449.479675 609.129456,449.938660 
	C609.129456,449.938660 609.047852,449.952454 609.056030,450.266907 
	C611.419189,452.699890 613.774048,454.818420 616.128906,456.936951 
	C616.128906,456.936951 616.047241,456.951416 616.066040,457.257263 
	C616.766663,458.021362 617.448486,458.479614 618.130249,458.937836 
	C618.130249,458.937836 618.048340,458.952057 618.053711,459.271484 
	C619.089905,461.264832 619.941284,463.086548 621.179077,464.590118 
	C636.546509,483.257324 647.313660,504.239502 653.093079,527.739685 
	C654.420898,533.138916 655.599365,538.574890 656.846497,543.993958 
	C657.232666,549.342468 657.618835,554.690918 658.009644,560.943604 
	C657.971680,567.641846 657.929138,573.435913 657.574280,579.088501 
	C651.574402,575.953247 646.015442,572.673157 640.164124,570.043884 
	C633.908264,567.232788 631.670776,564.896912 633.286743,558.299438 
	C634.225098,554.468567 637.544617,551.220947 639.792664,547.710876 
	C642.181213,550.190613 644.726562,552.542297 646.897217,555.199951 
	C648.127686,556.706421 648.651611,558.770203 649.676392,560.473145 
	C650.173462,561.299255 651.090210,561.872864 652.031616,562.763977 
	C654.436523,554.026367 649.973206,545.441956 641.888062,542.099915 
	C636.427612,539.842834 631.206848,540.993103 625.838562,542.601257 
	C617.423340,545.122314 612.543457,552.854919 614.630615,561.418823 
	C617.306458,572.398315 624.901978,579.328613 634.352478,584.630981 
	C642.339539,589.112305 643.346863,594.557678 637.316345,601.442932 
	C635.578735,603.426758 633.618835,605.429749 631.346802,606.658264 
	C629.773193,607.509155 627.023254,607.848267 625.610229,607.024414 
	C621.145813,604.421692 617.063354,601.163757 612.210144,597.716919 
	C613.682434,600.796814 614.839661,603.779053 616.451172,606.491333 
	C623.335449,618.077454 633.668396,624.153259 647.022217,625.572571 
	C646.646118,627.023438 646.347290,628.129883 645.914917,629.181458 
	C643.315308,635.504089 640.685059,641.814209 638.065063,648.128479 
	C638.065063,648.128479 638.049683,648.046692 637.736450,648.070190 
	C634.637146,652.771851 631.851013,657.450012 629.064880,662.128174 
	C629.064880,662.128174 629.049866,662.046448 628.723572,662.077087 
	C627.953186,663.114563 627.509033,664.121399 627.064941,665.128296 
	C627.064941,665.128296 627.048157,665.046387 626.715210,665.060303 
	C625.610474,666.424133 624.838806,667.774048 624.067078,669.123962 
	C624.067078,669.123962 624.047424,669.041138 623.731506,669.050842 
	C620.964722,672.083313 618.513855,675.106140 616.062988,678.128967 
	C616.062988,678.128967 616.047485,678.047058 615.733398,678.053772 
	C612.633850,681.083374 609.848389,684.106201 607.062988,687.129089 
	C607.062988,687.129089 607.048584,687.047363 606.742676,687.066162 
	C605.978638,687.766785 605.520447,688.448608 605.062256,689.130432 
	C605.062256,689.130432 605.048096,689.048462 604.724487,689.053223 
	C602.288208,691.081726 600.175598,693.105469 598.062988,695.129211 
	C598.062988,695.129211 598.048889,695.041931 597.856812,695.114136 
	C597.341431,695.314148 597.112793,695.538513 596.978882,695.859375 
	C596.978882,695.859375 596.590759,696.021484 596.030762,696.049683 
	C595.001099,696.761963 594.531372,697.445984 594.061646,698.130005 
	C594.061646,698.130005 594.041870,698.047852 593.704224,698.029419 
	C592.265259,699.050537 591.163940,700.090027 590.062683,701.129517 
	C590.062683,701.129517 590.042053,701.047241 589.711060,701.030518 
	C588.606934,701.719360 587.833862,702.424988 587.060730,703.130615 
	C587.060730,703.130615 587.042419,703.048767 586.759521,703.049622 
	C585.993713,703.416321 585.510864,703.782166 585.028015,704.148071 
	C585.028015,704.148071 585.025208,704.050049 584.695740,704.035156 
	C581.566956,705.966675 578.767639,707.913025 575.968323,709.859375 
	C575.968323,709.859375 575.585876,710.021545 575.048401,710.032166 
	C574.016113,710.411438 573.521301,710.780151 573.026428,711.148804 
	C573.026428,711.148804 573.023743,711.049133 572.749695,711.053528 
	C571.993103,711.421387 571.510620,711.784851 571.028076,712.148315 
	C571.028076,712.148315 571.025024,712.049683 570.750366,712.053467 
	C569.993225,712.421082 569.510803,712.784851 569.028320,713.148682 
	C569.028320,713.148682 569.025269,713.049866 568.750488,713.053345 
	C567.993103,713.421082 567.510559,713.785217 567.028015,714.149353 
	C567.028015,714.149353 567.025208,714.050110 566.750366,714.052429 
	C565.993042,714.419556 565.510498,714.784363 565.027954,715.149170 
	C565.027954,715.149170 565.025208,715.050171 564.750122,715.052002 
	C563.992798,715.419006 563.510437,715.784180 563.028137,716.149353 
	C563.028137,716.149353 563.025208,716.051086 562.695190,716.033386 
	C560.252075,717.061157 558.139038,718.106689 556.026001,719.152222 
	C556.026001,719.152161 556.023132,719.051880 555.713745,719.030884 
	C554.609680,719.391052 553.815063,719.772217 553.020508,720.153442 
	C553.020508,720.153442 553.019836,720.049683 552.659424,720.029907 
	C540.201233,722.955872 528.103455,725.901672 516.005676,728.847412 
	C516.005676,728.847412 515.594299,729.012268 514.894287,729.005249 
	C499.747009,728.677002 485.299744,728.355713 470.852478,728.034424 
	C470.852478,728.034363 470.402039,728.010498 469.912506,727.675415 
	C455.093140,724.487366 441.100861,720.622437 427.935211,714.074524 
	C426.076721,713.150146 423.706512,713.254517 421.573181,712.882690 
	C421.573181,712.882690 421.290558,712.730957 421.344055,712.286987 
	C416.476349,708.665771 411.593597,705.426819 406.620911,702.332336 
	C403.101013,700.141907 399.459381,698.147095 395.872070,696.065002 
	C395.872070,696.065002 395.954102,696.047729 395.943848,695.731323 
	C393.579559,693.630798 391.225525,691.846619 388.871521,690.062439 
	C388.871490,690.062439 388.953278,690.047180 388.945435,689.732117 
	C388.844727,689.102539 388.844330,688.703857 388.645752,688.485596 
	C381.362793,680.479370 374.072937,672.479187 366.728119,664.529968 
	C366.365295,664.137268 365.500946,664.207947 364.870148,664.062805 
	C364.870148,664.062805 364.952332,664.046570 364.971436,663.711548 
	C364.781494,662.591370 364.723297,661.722412 364.340698,661.033569 
	C358.568542,650.642822 352.354858,640.472351 347.107330,629.825073 
	C344.229065,623.985107 342.963654,617.350159 341.383118,611.046875 
	C359.667816,615.496704 375.032410,610.207458 389.244446,597.997803 
	C389.244446,601.857605 389.244446,604.781860 389.244446,607.709229 
	C407.356384,607.709229 425.082367,607.709229 442.970520,607.709229 
	C443.025421,606.618958 443.102142,605.810669 443.101715,605.002380 
	C443.078217,559.549377 443.175079,514.095825 442.957275,468.643768 
	C442.868835,450.188751 436.761902,434.757111 419.052795,425.841888 
	C419.427551,424.986298 419.692169,424.423309 419.956787,423.860352 
	C419.956787,423.860352 419.965790,423.947815 420.245239,423.944244 
	C421.007172,423.577911 421.489655,423.215118 421.972168,422.852356 
	C421.972168,422.852356 421.975159,422.950287 422.312714,422.963867 
	C428.420959,420.269806 434.191650,417.562164 439.962341,414.854492 
	C439.962341,414.854492 439.969757,414.946655 440.336060,414.968292 
	C442.788208,414.493042 444.897675,414.078308 446.956085,413.486084 
	C461.976807,409.164337 477.122192,405.462402 492.903137,406.040527 
	C504.327148,406.459045 515.735352,407.308838 527.150574,407.966339 
M462.101929,580.592651 
	C461.710358,580.902649 461.306274,581.198181 460.929047,581.524841 
	C451.816803,589.414734 449.289429,598.118225 453.041748,608.670532 
	C456.204193,617.563965 466.412811,624.509338 476.854095,624.411316 
	C480.071381,624.381104 479.795258,626.157166 479.999756,628.161316 
	C480.686798,634.893921 481.267975,641.644775 482.257416,648.334290 
	C482.544281,650.273865 483.760468,653.241394 485.093994,653.576660 
	C486.914429,654.034363 489.663025,652.914734 491.271210,651.578064 
	C493.379852,649.825378 495.020782,647.349670 496.416962,644.927795 
	C502.765594,633.915222 506.385468,622.126160 506.008209,609.280212 
	C505.719940,599.462891 505.467651,589.644470 505.172211,579.827454 
	C504.627136,561.714783 504.084259,543.601929 503.490387,525.490845 
	C503.335114,520.754700 500.226776,518.759460 496.010010,518.325012 
	C489.988617,517.704529 484.308990,522.839478 483.987396,528.914246 
	C483.318512,541.548035 482.547028,554.177429 482.015564,566.816895 
	C481.873871,570.186829 480.356903,571.728088 477.367493,572.976074 
	C472.344421,575.072937 467.551666,577.721436 462.101929,580.592651 
M575.366272,604.112854 
	C571.048462,607.055542 566.820618,606.225891 562.747620,603.654480 
	C555.826294,599.284790 551.261292,593.055786 549.231934,585.170227 
	C547.327820,577.771240 548.638428,576.067627 556.272644,575.224487 
	C565.016907,574.258850 572.615662,570.789978 578.962097,564.761230 
	C586.027588,558.049438 585.990295,549.839539 579.329468,542.859741 
	C572.558655,535.764709 563.928040,534.253052 554.721130,533.893860 
	C550.365051,533.723877 546.987671,535.096069 544.165710,538.366394 
	C535.928040,547.912842 529.266235,558.417114 525.290100,570.414612 
	C519.112366,589.055054 525.278625,612.130798 539.026672,622.844116 
	C550.923950,632.115234 565.977905,631.275208 575.564148,619.745117 
	C582.972839,610.834045 589.210205,600.940979 595.813721,591.377747 
	C596.771484,589.990784 596.865051,588.007080 597.358521,586.299500 
	C595.675781,587.279419 593.794495,588.029358 592.345520,589.280090 
	C586.840454,594.032043 581.475159,598.945801 575.366272,604.112854 
z"/>
<path fill="#4C3322" opacity="1.000000" stroke="none" 
	d="
M211.104095,423.975830 
	C211.104080,423.975830 211.332962,423.834076 211.852875,423.979309 
	C224.570694,419.847351 237.201157,418.075226 249.991943,419.285126 
	C258.433685,420.083618 266.734528,422.371490 275.098480,423.992523 
	C275.098480,423.992523 274.989685,424.005371 274.977173,424.333130 
	C275.675995,424.773254 276.387268,424.885620 277.098572,424.997955 
	C277.098572,424.997955 276.992401,425.006348 276.952942,425.315552 
	C303.983032,440.087830 308.415924,467.248901 305.359894,493.619781 
	C287.606384,493.619781 269.879974,493.619781 251.999878,493.619781 
	C251.999878,482.751038 252.119949,472.258636 251.954224,461.770752 
	C251.856964,455.615356 248.480026,452.757416 242.338104,453.055939 
	C236.341110,453.347412 233.908081,456.250183 233.900467,463.549347 
	C233.865051,497.535767 233.882645,531.522278 233.898285,565.508789 
	C233.899048,567.171631 233.912872,568.857971 234.173950,570.492859 
	C235.005508,575.699951 237.984909,578.584534 242.597305,578.828979 
	C248.204071,579.126160 251.974655,576.512512 253.121216,571.066406 
	C253.731979,568.165466 253.889938,565.130249 253.917862,562.152527 
	C254.011047,552.215454 253.953140,542.276917 253.953140,532.258179 
	C272.202881,532.258179 289.934570,532.258179 308.000610,532.258179 
	C308.000610,534.143372 308.084564,535.780823 307.987000,537.407349 
	C307.353363,547.969604 306.680237,558.529541 306.020081,569.090210 
	C306.020111,569.090210 306.005585,568.999451 305.646240,568.982117 
	C304.865692,571.338623 304.444427,573.712524 304.023193,576.086365 
	C304.023193,576.086365 304.010468,576.002136 303.679443,575.953613 
	C302.605957,577.711792 301.868622,579.520508 301.120056,581.324707 
	C299.772522,584.572510 298.418274,587.817505 297.066833,591.063721 
	C297.066833,591.063721 297.005646,590.997559 296.715332,590.754272 
	C295.639252,592.029724 294.853516,593.548340 294.067749,595.067017 
	C294.067749,595.067017 294.011414,595.001282 293.642761,594.800537 
	C293.192322,595.097229 293.110504,595.594604 293.028687,596.092041 
	C293.028687,596.092041 293.018707,596.018738 292.648193,595.828796 
	C292.194550,596.123291 292.111450,596.607727 292.028351,597.092163 
	C292.028351,597.092163 292.018707,597.018738 291.641235,596.827148 
	C291.186676,597.120789 291.109619,597.605957 291.032593,598.091187 
	C291.032593,598.091187 291.018311,598.018250 290.640991,597.811646 
	C290.186615,598.100464 290.109589,598.595886 290.032532,599.091370 
	C290.032532,599.091370 290.001831,599.014954 289.760681,598.725098 
	C288.030426,599.982605 286.541290,601.530090 285.052185,603.077576 
	C285.052185,603.077576 285.003326,603.002136 284.759460,602.696228 
	C284.003265,602.958557 283.490936,603.526794 282.978638,604.095093 
	C282.978638,604.095093 282.996582,603.999695 282.686035,603.857788 
	C279.912903,605.175415 277.450378,606.635010 274.987823,608.094543 
	C274.987823,608.094543 274.998810,608.001038 274.652222,607.854492 
	C266.938751,609.153015 259.571869,610.598206 252.204971,612.043335 
	C247.376907,612.345581 242.548828,612.647888 237.022705,612.604797 
	C227.518387,610.503357 218.712128,608.747314 209.905853,606.991272 
	C209.905853,606.991272 210.028732,606.972473 209.902588,606.642456 
	C208.825851,606.227722 207.875275,606.143066 206.924683,606.058350 
	C206.924683,606.058350 206.995804,606.033569 207.078278,605.633728 
	C206.411713,605.170532 205.662689,605.107178 204.913666,605.043884 
	C204.913666,605.043884 204.997864,605.023132 205.058319,604.616089 
	C204.386276,604.158813 203.653763,604.108521 202.921249,604.058228 
	C202.921249,604.058228 202.991440,604.006775 203.255371,603.734497 
	C201.983322,602.652222 200.447342,601.842285 198.911346,601.032410 
	C198.911346,601.032410 198.984650,601.021362 199.164948,600.700989 
	C197.871918,599.606384 196.398590,598.832214 194.925247,598.057983 
	C194.925247,598.057983 194.997482,598.005920 195.274857,597.763550 
	C193.676361,596.033569 191.800476,594.545837 189.924591,593.058167 
	C189.924591,593.058167 189.996109,592.998962 190.309052,592.789734 
	C182.926163,582.145935 178.196686,570.531311 178.089615,557.508484 
	C177.863831,530.046509 177.848877,502.579987 178.087341,475.118286 
	C178.192001,463.067719 181.642990,451.872498 188.985870,442.062378 
	C189.600143,441.241699 189.632248,439.985260 189.934814,438.931274 
	C189.934814,438.931274 189.996384,439.001465 190.221954,439.283691 
	C192.610962,437.019562 194.774414,434.473206 196.937866,431.926849 
	C196.937866,431.926849 196.995163,432.002319 197.199249,432.327515 
	C199.256897,431.071960 201.110458,429.491180 202.964050,427.910400 
	C202.964050,427.910400 202.991486,427.986755 203.218842,428.299652 
	C205.299469,427.374603 207.152710,426.136658 209.005966,424.898712 
	C209.005966,424.898712 208.995667,424.989960 209.293976,425.188354 
	C210.096222,424.916443 210.600159,424.446136 211.104095,423.975830 
z"/>
<path fill="#FEFEFD" opacity="1.000000" stroke="none" 
	d="
M306.451355,569.041199 
	C306.680237,558.529541 307.353363,547.969604 307.987000,537.407349 
	C308.084564,535.780823 308.000610,534.143372 308.000610,532.258179 
	C289.934570,532.258179 272.202881,532.258179 253.953140,532.258179 
	C253.953140,542.276917 254.011047,552.215454 253.917862,562.152527 
	C253.889938,565.130249 253.731979,568.165466 253.121216,571.066406 
	C251.974655,576.512512 248.204071,579.126160 242.597305,578.828979 
	C237.984909,578.584534 235.005508,575.699951 234.173950,570.492859 
	C233.912872,568.857971 233.899048,567.171631 233.898285,565.508789 
	C233.882645,531.522278 233.865051,497.535767 233.900467,463.549347 
	C233.908081,456.250183 236.341110,453.347412 242.338104,453.055939 
	C248.480026,452.757416 251.856964,455.615356 251.954224,461.770752 
	C252.119949,472.258636 251.999878,482.751038 251.999878,493.619781 
	C269.879974,493.619781 287.606384,493.619781 305.359894,493.619781 
	C308.415924,467.248901 303.983032,440.087830 276.947235,425.262573 
	C281.111877,426.951202 286.234070,428.080872 289.170715,431.241333 
	C295.613098,438.174530 302.661316,445.080139 304.034332,455.319672 
	C304.501556,458.804260 304.650085,462.532959 306.051270,465.652954 
	C310.137634,474.752136 306.629913,484.264252 308.467499,494.115967 
	C310.698120,494.115967 313.208313,494.115967 315.997192,494.115967 
	C315.997192,485.483185 315.605011,477.318298 316.112946,469.209778 
	C316.575378,461.827820 317.861816,454.480408 319.131226,447.177948 
	C319.451447,445.335693 321.094360,443.723358 322.553986,441.985474 
	C322.978516,441.965546 322.933258,441.954834 323.303772,442.213196 
	C315.705048,459.200714 317.528839,476.963806 317.450287,495.035126 
	C329.117218,495.035126 340.065552,495.035126 350.974792,495.399841 
	C348.967590,500.534973 346.999420,505.305359 344.791016,510.331360 
	C339.519379,513.125305 334.323181,515.387634 329.497192,518.269897 
	C323.045685,522.122864 318.392792,527.819763 318.202332,535.510315 
	C317.685242,556.387268 313.779297,577.606140 323.266083,597.689880 
	C323.291656,597.744019 323.053772,597.922546 322.945679,598.034180 
	C322.952393,598.025269 322.965668,598.039429 322.965668,598.039429 
	C321.667908,596.763977 319.594940,595.685486 319.211639,594.177612 
	C317.831940,588.749939 316.275482,583.195862 316.138367,577.656067 
	C315.740112,561.563660 315.997192,545.455078 315.997192,528.873901 
	C313.865723,529.852783 312.094147,530.666382 310.002808,531.626831 
	C310.002808,538.230713 310.404175,545.060364 309.880219,551.818176 
	C309.433044,557.585632 307.922729,563.270691 306.451355,569.041199 
z"/>
<path fill="#402E22" opacity="1.000000" stroke="none" 
	d="
M647.037720,625.202820 
	C633.668396,624.153259 623.335449,618.077454 616.451172,606.491333 
	C614.839661,603.779053 613.682434,600.796814 612.210144,597.716919 
	C617.063354,601.163757 621.145813,604.421692 625.610229,607.024414 
	C627.023254,607.848267 629.773193,607.509155 631.346802,606.658264 
	C633.618835,605.429749 635.578735,603.426758 637.316345,601.442932 
	C643.346863,594.557678 642.339539,589.112305 634.352478,584.630981 
	C624.901978,579.328613 617.306458,572.398315 614.630615,561.418823 
	C612.543457,552.854919 617.423340,545.122314 625.838562,542.601257 
	C631.206848,540.993103 636.427612,539.842834 641.888062,542.099915 
	C649.973206,545.441956 654.436523,554.026367 652.031616,562.763977 
	C651.090210,561.872864 650.173462,561.299255 649.676392,560.473145 
	C648.651611,558.770203 648.127686,556.706421 646.897217,555.199951 
	C644.726562,552.542297 642.181213,550.190613 639.792664,547.710876 
	C637.544617,551.220947 634.225098,554.468567 633.286743,558.299438 
	C631.670776,564.896912 633.908264,567.232788 640.164124,570.043884 
	C646.015442,572.673157 651.574402,575.953247 657.703674,579.395020 
	C666.010925,589.235779 670.099792,599.249512 663.377014,611.104492 
	C663.222473,611.377014 663.795776,612.062256 664.029541,612.555054 
	C664.029541,612.555054 664.086731,612.547546 663.731445,612.307983 
	C661.927429,614.895752 660.478638,617.723083 659.029907,620.550476 
	C658.686890,621.017517 658.343872,621.484558 657.474609,621.536255 
	C656.285706,621.783630 655.622864,622.446289 654.960022,623.108948 
	C654.960022,623.108948 654.982178,622.988586 654.620239,622.843140 
	C654.179565,623.166077 654.100891,623.634583 654.022217,624.103027 
	C654.022156,624.103027 654.000854,624.026611 653.794617,623.654907 
	C651.404846,623.923035 649.221252,624.562927 647.037720,625.202820 
z"/>
<path fill="#FEFEFD" opacity="1.000000" stroke="none" 
	d="
M189.572327,438.964142 
	C189.632248,439.985260 189.600143,441.241699 188.985870,442.062378 
	C181.642990,451.872498 178.192001,463.067719 178.087341,475.118286 
	C177.848877,502.579987 177.863831,530.046509 178.089615,557.508484 
	C178.196686,570.531311 182.926163,582.145935 190.278931,592.824829 
	C186.672394,588.538513 182.546936,584.383606 180.366943,579.380920 
	C177.730530,573.330811 176.702988,566.572510 175.076126,560.096436 
	C174.800003,558.997375 174.999069,557.775940 174.998978,556.611023 
	C174.996674,529.479309 174.777481,502.344360 175.178055,475.218567 
	C175.260574,469.631042 178.154022,464.140472 178.867523,458.493469 
	C179.872116,450.542755 184.002686,444.558014 189.572327,438.964142 
z"/>
<path fill="#FEFEFD" opacity="1.000000" stroke="none" 
	d="
M656.919006,543.533752 
	C655.599365,538.574890 654.420898,533.138916 653.093079,527.739685 
	C647.313660,504.239502 636.546509,483.257324 621.179077,464.590118 
	C619.941284,463.086548 619.089905,461.264832 618.060974,459.230591 
	C621.705811,462.865295 625.994446,466.447784 628.862976,470.937592 
	C635.752563,481.720947 642.330872,492.742645 648.299805,504.056000 
	C650.820618,508.834045 651.439270,514.603577 653.023010,519.892395 
	C654.023193,523.232605 655.658508,526.445740 656.199341,529.844666 
	C656.890198,534.186340 656.765015,538.657959 656.919006,543.533752 
z"/>
<path fill="#FEFEFD" opacity="1.000000" stroke="none" 
	d="
M340.970978,611.073669 
	C342.963654,617.350159 344.229065,623.985107 347.107330,629.825073 
	C352.354858,640.472351 358.568542,650.642822 364.340698,661.033569 
	C364.723297,661.722412 364.781494,662.591370 364.962952,663.752563 
	C361.964905,660.416931 358.405914,657.030090 356.142120,652.928467 
	C350.831604,643.306641 346.012878,633.403931 341.262604,623.486816 
	C339.370941,619.537537 338.185730,615.249939 336.702209,610.642334 
	C336.890350,610.027161 337.055145,609.886047 337.550720,609.799927 
	C338.911285,610.261047 339.941132,610.667358 340.970978,611.073669 
z"/>
<path fill="#FEFEFD" opacity="1.000000" stroke="none" 
	d="
M419.553223,423.924011 
	C419.692169,424.423309 419.427551,424.986298 418.676086,425.799500 
	C402.321350,419.397583 385.702789,418.060486 368.809357,419.543823 
	C361.486176,420.186859 354.246033,421.775818 346.974915,422.947388 
	C346.981689,422.959625 346.980133,422.986969 346.980133,422.986969 
	C352.704865,421.324127 358.339630,419.171417 364.172974,418.099854 
	C376.517944,415.832214 388.926453,416.958069 401.170715,419.102570 
	C407.262054,420.169434 413.162781,422.324707 419.553223,423.924011 
z"/>
<path fill="#FEFEFD" opacity="1.000000" stroke="none" 
	d="
M274.956360,423.644775 
	C266.734528,422.371490 258.433685,420.083618 249.991943,419.285126 
	C237.201157,418.075226 224.570694,419.847351 211.944672,424.077759 
	C215.464523,422.444061 219.285294,420.288483 223.383194,419.371857 
	C238.521973,415.985565 253.649002,415.855408 268.534882,420.954468 
	C270.647583,421.678162 272.722076,422.513428 274.956360,423.644775 
z"/>
<path fill="#FEFEFD" opacity="1.000000" stroke="none" 
	d="
M526.945557,407.597168 
	C515.735352,407.308838 504.327148,406.459045 492.903137,406.040527 
	C477.122192,405.462402 461.976807,409.164337 446.956085,413.486084 
	C444.897675,414.078308 442.788208,414.493042 440.290161,414.962891 
	C446.796417,412.624725 453.589752,409.783600 460.659790,408.114258 
	C474.830872,404.768158 489.334839,404.395020 503.820618,405.068787 
	C511.477509,405.424896 519.101624,406.485443 526.945557,407.597168 
z"/>
<path fill="#FEFEFD" opacity="1.000000" stroke="none" 
	d="
M664.344238,612.296875 
	C663.795776,612.062256 663.222473,611.377014 663.377014,611.104492 
	C670.099792,599.249512 666.010925,589.235779 658.015930,579.536560 
	C657.929138,573.435913 657.971680,567.641846 658.029541,561.373840 
	C658.697083,562.745972 660.133606,564.712769 659.870972,566.417847 
	C658.454224,575.617126 662.626709,582.898499 667.300415,590.090210 
	C667.460388,590.336365 667.878540,590.555725 667.859253,590.757141 
	C667.173950,597.907532 670.558655,605.677429 664.344238,612.296875 
z"/>
<path fill="#FEFEFD" opacity="1.000000" stroke="none" 
	d="
M421.771118,713.156799 
	C423.706512,713.254517 426.076721,713.150146 427.935211,714.074524 
	C441.100861,720.622437 455.093140,724.487366 469.702301,727.593628 
	C461.590363,729.112427 453.897858,725.860413 446.264526,723.487305 
	C437.929474,720.896118 430.048157,716.845398 421.771118,713.156799 
z"/>
<path fill="#FEFEFD" opacity="1.000000" stroke="none" 
	d="
M364.929443,664.448608 
	C365.500946,664.207947 366.365295,664.137268 366.728119,664.529968 
	C374.072937,672.479187 381.362793,680.479370 388.645752,688.485596 
	C388.844330,688.703857 388.844727,689.102539 388.937683,689.772949 
	C386.880524,688.836487 384.379242,687.933411 382.844086,686.182983 
	C376.728760,679.210205 370.914459,671.973450 364.929443,664.448608 
z"/>
<path fill="#FEFEFD" opacity="1.000000" stroke="none" 
	d="
M647.022217,625.572571 
	C649.221252,624.562927 651.404846,623.923035 653.829529,623.673706 
	C647.083435,628.690308 645.351501,636.580078 641.958984,643.453674 
	C641.155212,645.082153 639.904663,646.490051 638.462341,648.063965 
	C640.685059,641.814209 643.315308,635.504089 645.914917,629.181458 
	C646.347290,628.129883 646.646118,627.023438 647.022217,625.572571 
z"/>
<path fill="#FEFEFD" opacity="1.000000" stroke="none" 
	d="
M395.932312,696.425354 
	C399.459381,698.147095 403.101013,700.141907 406.620911,702.332336 
	C411.593597,705.426819 416.476349,708.665771 421.263306,712.148438 
	C414.008881,708.394714 406.856476,704.390320 399.795380,700.230957 
	C398.352081,699.380798 397.251251,697.949280 395.932312,696.425354 
z"/>
<path fill="#FEFEFD" opacity="1.000000" stroke="none" 
	d="
M471.059052,728.405640 
	C485.299744,728.355713 499.747009,728.677002 514.672974,729.015930 
	C515.068298,729.176392 514.988098,729.442078 514.901001,729.444336 
	C506.034119,729.677063 497.165131,730.097351 488.299957,730.029053 
	C482.618958,729.985352 476.943542,729.219238 471.059052,728.405640 
z"/>
<path fill="#FEFEFD" opacity="1.000000" stroke="none" 
	d="
M516.446960,728.917053 
	C528.103455,725.901672 540.201233,722.955872 552.710815,720.037292 
	C544.456482,722.710388 535.838013,725.531372 527.099609,727.911682 
	C523.840088,728.799561 520.300232,728.658569 516.446960,728.917053 
z"/>
<path fill="#FEFEFD" opacity="1.000000" stroke="none" 
	d="
M210.042358,607.342651 
	C218.712128,608.747314 227.518387,610.503357 236.545685,612.560791 
	C227.391144,613.778442 218.603058,611.672180 210.042358,607.342651 
z"/>
<path fill="#FEFEFD" opacity="1.000000" stroke="none" 
	d="
M629.426208,662.067749 
	C631.851013,657.450012 634.637146,652.771851 637.777466,648.077271 
	C637.000793,653.697205 633.738586,658.058411 629.426208,662.067749 
z"/>
<path fill="#FFEFD5" opacity="1.000000" stroke="none" 
	d="
M297.459717,591.045288 
	C298.418274,587.817505 299.772522,584.572510 301.120056,581.324707 
	C301.868622,579.520508 302.605957,577.711792 303.721741,575.948730 
	C304.447174,582.014038 301.187775,586.536133 297.459717,591.045288 
z"/>
<path fill="#FFEFD5" opacity="1.000000" stroke="none" 
	d="
M252.382721,612.414734 
	C259.571869,610.598206 266.938751,609.153015 274.698914,607.860291 
	C268.080872,611.960510 260.595795,613.671875 252.382721,612.414734 
z"/>
<path fill="#FEFEFD" opacity="1.000000" stroke="none" 
	d="
M439.562927,414.920959 
	C434.191650,417.562164 428.420959,420.269806 422.264191,422.957153 
	C427.639893,420.287048 433.401703,417.637238 439.562927,414.920959 
z"/>
<path fill="#FEFEFD" opacity="1.000000" stroke="none" 
	d="
M546.945984,412.592712 
	C540.922302,411.509796 534.723022,410.083588 528.265381,408.402985 
	C534.261475,409.515503 540.515991,410.882446 546.945984,412.592712 
z"/>
<path fill="#FEFEFD" opacity="1.000000" stroke="none" 
	d="
M322.959229,441.950134 
	C323.719055,436.785004 327.283020,433.745514 331.596375,430.983704 
	C331.963593,430.971832 331.945190,430.940948 332.243591,431.211853 
	C329.339050,434.973419 326.136139,438.464111 322.933258,441.954834 
	C322.933258,441.954834 322.978516,441.965546 322.959229,441.950134 
z"/>
<path fill="#FEFEFD" opacity="1.000000" stroke="none" 
	d="
M607.410950,687.068787 
	C609.848389,684.106201 612.633850,681.083374 615.774353,678.061523 
	C613.339233,681.044495 610.549072,684.026489 607.410950,687.068787 
z"/>
<path fill="#FEFEFD" opacity="1.000000" stroke="none" 
	d="
M616.421875,678.068726 
	C618.513855,675.106140 620.964722,672.083313 623.772644,669.061646 
	C621.680054,672.044678 619.230408,675.026550 616.421875,678.068726 
z"/>
<path fill="#FEFEFD" opacity="1.000000" stroke="none" 
	d="
M616.068298,456.578674 
	C613.774048,454.818420 611.419189,452.699890 609.063110,450.226135 
	C611.377136,451.987366 613.692444,454.103882 616.068298,456.578674 
z"/>
<path fill="#FEFEFD" opacity="1.000000" stroke="none" 
	d="
M570.962036,422.605774 
	C566.843445,421.131012 562.564514,419.327271 558.160889,417.188049 
	C562.291382,418.660645 566.546509,420.468719 570.962036,422.605774 
z"/>
<path fill="#FEFEFD" opacity="1.000000" stroke="none" 
	d="
M576.333008,709.924072 
	C578.767639,707.913025 581.566956,705.966675 584.744263,704.042114 
	C582.314087,706.038818 579.505859,708.013794 576.333008,709.924072 
z"/>
<path fill="#FEFEFD" opacity="1.000000" stroke="none" 
	d="
M196.588974,431.960876 
	C194.774414,434.473206 192.610962,437.019562 190.186035,439.253479 
	C192.029739,436.625702 194.134903,434.310303 196.588974,431.960876 
z"/>
<path fill="#FEFEFD" opacity="1.000000" stroke="none" 
	d="
M598.417969,695.068787 
	C600.175598,693.105469 602.288208,691.081726 604.765381,689.060486 
	C603.010986,691.044739 600.891968,693.026550 598.417969,695.068787 
z"/>
<path fill="#FEFEFD" opacity="1.000000" stroke="none" 
	d="
M388.931702,690.415161 
	C391.225525,691.846619 393.579559,693.630798 395.935608,695.772461 
	C393.622406,694.342529 391.307159,692.555176 388.931702,690.415161 
z"/>
<path fill="#FEFEFD" opacity="1.000000" stroke="none" 
	d="
M584.980408,430.614563 
	C582.446655,429.484589 579.770996,428.033447 577.078125,426.225555 
	C579.653503,427.343658 582.245972,428.818512 584.980408,430.614563 
z"/>
<path fill="#FEFEFD" opacity="1.000000" stroke="none" 
	d="
M593.985474,436.617981 
	C591.780762,435.481049 589.437317,434.028992 587.077148,432.223389 
	C589.322449,433.347504 591.584534,434.825165 593.985474,436.617981 
z"/>
<path fill="#FEFEFD" opacity="1.000000" stroke="none" 
	d="
M659.270020,620.274597 
	C660.478638,617.723083 661.927429,614.895752 663.734131,612.336670 
	C662.564819,615.069519 661.037476,617.534119 659.270020,620.274597 
z"/>
<path fill="#FFEFD5" opacity="1.000000" stroke="none" 
	d="
M275.371124,608.055298 
	C277.450378,606.635010 279.912903,605.175415 282.733795,603.866333 
	C280.646210,605.349792 278.200317,606.682861 275.371124,608.055298 
z"/>
<path fill="#FEFEFD" opacity="1.000000" stroke="none" 
	d="
M329.969116,606.038208 
	C328.311462,604.612793 326.653809,603.187378 324.984558,601.391479 
	C324.972961,601.020996 324.940765,601.052551 325.236664,600.788452 
	C327.001434,602.364502 328.470306,604.204590 329.950806,606.033325 
	C329.962463,606.021973 329.969116,606.038208 329.969116,606.038208 
z"/>
<path fill="#FEFEFD" opacity="1.000000" stroke="none" 
	d="
M336.218353,427.423218 
	C338.537140,426.279816 340.855957,425.136414 343.575256,423.984375 
	C343.975800,423.975739 343.958191,423.930756 344.144531,424.274780 
	C341.975372,425.845398 339.619873,427.071991 337.009705,428.071594 
	C336.576141,427.704102 336.397247,427.563660 336.218353,427.423218 
z"/>
<path fill="#FEFEFD" opacity="1.000000" stroke="none" 
	d="
M189.959747,593.408020 
	C191.800476,594.545837 193.676361,596.033569 195.249146,597.799927 
	C193.295685,596.638367 191.645279,595.198120 189.959747,593.408020 
z"/>
<path fill="#FFEFD5" opacity="1.000000" stroke="none" 
	d="
M304.447021,576.055298 
	C304.444427,573.712524 304.865692,571.338623 305.691711,568.975586 
	C305.687958,571.332275 305.279388,573.678284 304.447021,576.055298 
z"/>
<path fill="#FEFEFD" opacity="1.000000" stroke="none" 
	d="
M202.609436,427.952179 
	C201.110458,429.491180 199.256897,431.071960 197.166397,432.292603 
	C198.704605,430.619659 200.479736,429.306824 202.609436,427.952179 
z"/>
<path fill="#FFEFD5" opacity="1.000000" stroke="none" 
	d="
M285.415955,603.056458 
	C286.541290,601.530090 288.030426,599.982605 289.794342,598.748779 
	C288.639313,600.386780 287.209503,601.711060 285.415955,603.056458 
z"/>
<path fill="#FEFEFD" opacity="1.000000" stroke="none" 
	d="
M336.463379,610.361084 
	C334.519958,609.601501 332.838684,608.649109 331.072144,607.361450 
	C330.986877,607.026306 330.958282,607.068848 331.187744,606.723816 
	C333.351440,607.500854 335.285706,608.622925 337.219971,609.744995 
	C337.055145,609.886047 336.890350,610.027161 336.463379,610.361084 
z"/>
<path fill="#FEFEFD" opacity="1.000000" stroke="none" 
	d="
M208.635254,424.945435 
	C207.152710,426.136658 205.299469,427.374603 203.184708,428.277771 
	C204.703644,426.959351 206.484085,425.975739 208.635254,424.945435 
z"/>
<path fill="#FFEFD5" opacity="1.000000" stroke="none" 
	d="
M294.411438,594.949585 
	C294.853516,593.548340 295.639252,592.029724 296.752289,590.780396 
	C296.304749,592.310547 295.529938,593.571350 294.411438,594.949585 
z"/>
<path fill="#FEFEFD" opacity="1.000000" stroke="none" 
	d="
M556.401001,719.082886 
	C558.139038,718.106689 560.252075,717.061157 562.743835,716.040405 
	C561.007019,717.047852 558.891479,718.030640 556.401001,719.082886 
z"/>
<path fill="#FEFEFD" opacity="1.000000" stroke="none" 
	d="
M331.948853,430.954102 
	C333.184357,429.908234 334.434570,428.880096 335.951569,427.637604 
	C336.397247,427.563660 336.576141,427.704102 336.803101,428.358459 
	C335.215790,429.561890 333.580475,430.251404 331.945190,430.940918 
	C331.945190,430.940948 331.963593,430.971832 331.948853,430.954102 
z"/>
<path fill="#FEFEFD" opacity="1.000000" stroke="none" 
	d="
M624.397827,668.972290 
	C624.838806,667.774048 625.610474,666.424133 626.756226,665.068176 
	C626.329712,666.314941 625.529175,667.567749 624.397827,668.972290 
z"/>
<path fill="#FEFEFD" opacity="1.000000" stroke="none" 
	d="
M598.067932,439.574646 
	C596.777344,439.162567 595.426331,438.389954 594.068726,437.243591 
	C595.377197,437.651276 596.692383,438.432709 598.067932,439.574646 
z"/>
<path fill="#FEFEFD" opacity="1.000000" stroke="none" 
	d="
M194.960876,598.422119 
	C196.398590,598.832214 197.871918,599.606384 199.163177,600.738037 
	C197.652924,600.325684 196.324722,599.556030 194.960876,598.422119 
z"/>
<path fill="#FEFEFD" opacity="1.000000" stroke="none" 
	d="
M590.395508,701.069458 
	C591.163940,700.090027 592.265259,699.050537 593.745422,698.038818 
	C592.992249,699.047424 591.860291,700.028381 590.395508,701.069458 
z"/>
<path fill="#FEFEFD" opacity="1.000000" stroke="none" 
	d="
M198.953033,601.398071 
	C200.447342,601.842285 201.983322,602.652222 203.235840,603.773376 
	C201.633179,603.311035 200.313950,602.537415 198.953033,601.398071 
z"/>
<path fill="#FEFEFD" opacity="1.000000" stroke="none" 
	d="
M627.434570,665.067078 
	C627.509033,664.121399 627.953186,663.114563 628.764526,662.083984 
	C628.689331,663.042114 628.246826,664.023987 627.434570,665.067078 
z"/>
<path fill="#FEFEFD" opacity="1.000000" stroke="none" 
	d="
M553.989746,415.634644 
	C552.852234,415.484100 551.572388,415.005615 550.164001,414.189331 
	C551.306091,414.336548 552.576721,414.821625 553.989746,415.634644 
z"/>
<path fill="#FEFEFD" opacity="1.000000" stroke="none" 
	d="
M324.959259,601.039062 
	C324.295410,600.301636 323.645264,599.546204 322.980408,598.415039 
	C322.965668,598.039429 322.952393,598.025269 323.329956,597.873230 
	C324.118622,598.831665 324.529694,599.942078 324.940765,601.052551 
	C324.940765,601.052551 324.972961,601.020996 324.959259,601.039062 
z"/>
<path fill="#FEFEFD" opacity="1.000000" stroke="none" 
	d="
M587.386841,703.070068 
	C587.833862,702.424988 588.606934,701.719360 589.752319,701.040222 
	C589.320740,701.714294 588.516846,702.361938 587.386841,703.070068 
z"/>
<path fill="#FEFEFD" opacity="1.000000" stroke="none" 
	d="
M602.994324,443.627747 
	C602.121521,443.489105 601.118469,443.045593 600.086853,442.236511 
	C600.993530,442.354919 601.928833,442.838898 602.994324,443.627747 
z"/>
<path fill="#FEFEFD" opacity="1.000000" stroke="none" 
	d="
M609.068542,449.590942 
	C608.448486,449.479675 607.767517,449.020691 607.073730,448.215729 
	C607.709839,448.327576 608.358765,448.785431 609.068542,449.590942 
z"/>
<path fill="#FEFEFD" opacity="1.000000" stroke="none" 
	d="
M594.412720,698.068970 
	C594.531372,697.445984 595.001099,696.761963 595.820557,696.054443 
	C595.701477,696.690002 595.232605,697.348999 594.412720,698.068970 
z"/>
<path fill="#FEFEFD" opacity="1.000000" stroke="none" 
	d="
M607.068848,447.590759 
	C606.447693,447.479797 605.765930,447.021088 605.072876,446.215790 
	C605.710510,446.327118 606.359375,446.785065 607.068848,447.590759 
z"/>
<path fill="#FEFEFD" opacity="1.000000" stroke="none" 
	d="
M605.409973,689.069580 
	C605.520447,688.448608 605.978638,687.766785 606.783569,687.073181 
	C606.672852,687.710449 606.215271,688.359619 605.409973,689.069580 
z"/>
<path fill="#FEFEFD" opacity="1.000000" stroke="none" 
	d="
M605.069519,445.590027 
	C604.447510,445.479736 603.764954,445.021637 603.072144,444.216248 
	C603.710999,444.326721 604.359924,444.784485 605.069519,445.590027 
z"/>
<path fill="#FEFEFD" opacity="1.000000" stroke="none" 
	d="
M618.069458,458.590088 
	C617.448486,458.479614 616.766663,458.021362 616.073120,457.216431 
	C616.710388,457.327240 617.359497,457.784760 618.069458,458.590088 
z"/>
<path fill="#FEFEFD" opacity="1.000000" stroke="none" 
	d="
M600.068237,441.592102 
	C599.447754,441.479736 598.767578,441.019196 598.074463,440.213837 
	C598.710510,440.327332 599.359558,440.785645 600.068237,441.592102 
z"/>
<path fill="#FEFEFD" opacity="1.000000" stroke="none" 
	d="
M576.968933,425.610626 
	C576.215515,425.773071 575.307678,425.613739 574.209167,425.154541 
	C574.950500,424.999359 575.882507,425.144104 576.968933,425.610626 
z"/>
<path fill="#FEFEFD" opacity="1.000000" stroke="none" 
	d="
M557.967163,416.611328 
	C557.239624,416.835144 556.357971,416.735413 555.242859,416.392517 
	C555.943970,416.195526 556.878540,416.241638 557.967163,416.611328 
z"/>
<path fill="#FEFEFD" opacity="1.000000" stroke="none" 
	d="
M207.065277,606.392822 
	C207.875275,606.143066 208.825851,606.227722 209.917862,606.702698 
	C209.108139,606.971130 208.156998,606.849243 207.065277,606.392822 
z"/>
<path fill="#FEFEFD" opacity="1.000000" stroke="none" 
	d="
M549.968384,413.612000 
	C549.210754,413.774048 548.299744,413.613525 547.202881,413.148743 
	C547.949707,412.992767 548.882324,413.141083 549.968384,413.612000 
z"/>
<path fill="#FEFEFD" opacity="1.000000" stroke="none" 
	d="
M343.955231,423.956329 
	C344.712646,423.625275 345.490631,423.313629 346.624390,422.994476 
	C346.980133,422.986969 346.981689,422.959625 346.951355,423.377655 
	C345.933441,423.840729 344.945801,423.885742 343.958191,423.930786 
	C343.958191,423.930756 343.975800,423.975739 343.955231,423.956329 
z"/>
<path fill="#FEFEFD" opacity="1.000000" stroke="none" 
	d="
M553.372314,720.083496 
	C553.815063,719.772217 554.609680,719.391052 555.763367,719.037781 
	C555.322998,719.381653 554.523621,719.697693 553.372314,720.083496 
z"/>
<path fill="#FEFEFD" opacity="1.000000" stroke="none" 
	d="
M585.344360,704.079529 
	C585.510864,703.782166 585.993713,703.416321 586.800598,703.058044 
	C586.636658,703.380737 586.148682,703.695862 585.344360,704.079529 
z"/>
<path fill="#FEFEFD" opacity="1.000000" stroke="none" 
	d="
M573.349487,711.080139 
	C573.521301,710.780151 574.016113,710.411438 574.840759,710.037109 
	C574.671204,710.358093 574.171875,710.684753 573.349487,711.080139 
z"/>
<path fill="#FEFEFD" opacity="1.000000" stroke="none" 
	d="
M571.344788,712.080017 
	C571.510620,711.784851 571.993103,711.421387 572.799072,711.060303 
	C572.635498,711.379028 572.148499,711.695374 571.344788,712.080017 
z"/>
<path fill="#FEFEFD" opacity="1.000000" stroke="none" 
	d="
M569.344971,713.080200 
	C569.510803,712.784851 569.993225,712.421082 570.799316,712.060181 
	C570.635803,712.379272 570.148682,712.695557 569.344971,713.080200 
z"/>
<path fill="#FEFEFD" opacity="1.000000" stroke="none" 
	d="
M567.344604,714.080566 
	C567.510559,713.785217 567.993103,713.421082 568.799438,713.060120 
	C568.635864,713.379456 568.148560,713.695618 567.344604,714.080566 
z"/>
<path fill="#FEFEFD" opacity="1.000000" stroke="none" 
	d="
M565.344543,715.080444 
	C565.510498,714.784363 565.993042,714.419556 566.799561,714.059326 
	C566.636047,714.379822 566.148621,714.695801 565.344543,715.080444 
z"/>
<path fill="#FEFEFD" opacity="1.000000" stroke="none" 
	d="
M563.344604,716.080505 
	C563.510437,715.784180 563.992798,715.419006 564.799194,715.058838 
	C564.635925,715.379822 564.148560,715.695740 563.344604,716.080505 
z"/>
<path fill="#FEFEFD" opacity="1.000000" stroke="none" 
	d="
M586.995667,431.637939 
	C586.525940,431.763031 585.927979,431.591431 585.177612,431.134216 
	C585.639282,431.012817 586.253418,431.177063 586.995667,431.637939 
z"/>
<path fill="#FEFEFD" opacity="1.000000" stroke="none" 
	d="
M655.325073,623.058289 
	C655.622864,622.446289 656.285706,621.783630 657.252197,621.573792 
	C656.933960,622.353638 656.312012,622.680664 655.325073,623.058289 
z"/>
<path fill="#FEFEFD" opacity="1.000000" stroke="none" 
	d="
M276.989624,424.681885 
	C276.387268,424.885620 275.675995,424.773254 274.969177,424.278931 
	C275.609314,424.053284 276.244995,424.209564 276.989624,424.681885 
z"/>
<path fill="#FEFEFD" opacity="1.000000" stroke="none" 
	d="
M205.024872,605.351074 
	C205.662689,605.107178 206.411713,605.170532 207.083679,605.671021 
	C206.383133,605.958130 205.759613,605.808167 205.024872,605.351074 
z"/>
<path fill="#FEFEFD" opacity="1.000000" stroke="none" 
	d="
M203.032776,604.363403 
	C203.653763,604.108521 204.386276,604.158813 205.065628,604.658813 
	C204.389755,604.961914 203.767044,604.815247 203.032776,604.363403 
z"/>
<path fill="#FFEFD5" opacity="1.000000" stroke="none" 
	d="
M283.307068,604.062500 
	C283.490936,603.526794 284.003265,602.958557 284.792480,602.726746 
	C284.591431,603.385437 284.113464,603.707703 283.307068,604.062500 
z"/>
<path fill="#FEFEFD" opacity="1.000000" stroke="none" 
	d="
M421.655396,422.920410 
	C421.489655,423.215118 421.007172,423.577911 420.201538,423.939270 
	C420.365143,423.621399 420.851898,423.304932 421.655396,422.920410 
z"/>
<path fill="#FEFEFD" opacity="1.000000" stroke="none" 
	d="
M572.995361,423.638611 
	C572.524902,423.763580 571.926819,423.591583 571.177002,423.133606 
	C571.639526,423.012360 572.253601,423.177032 572.995361,423.638611 
z"/>
<path fill="#FEFEFD" opacity="1.000000" stroke="none" 
	d="
M210.763641,423.988037 
	C210.600159,424.446136 210.096222,424.916443 209.248566,425.181580 
	C209.410934,424.651062 209.917053,424.325653 210.763641,423.988037 
z"/>
<path fill="#FEFEFD" opacity="1.000000" stroke="none" 
	d="
M597.254272,695.902222 
	C597.112793,695.538513 597.341431,695.314148 597.900940,695.116943 
	C597.934631,695.346741 597.732117,695.645874 597.254272,695.902222 
z"/>
<path fill="#FEFEFD" opacity="1.000000" stroke="none" 
	d="
M654.291260,624.024414 
	C654.100891,623.634583 654.179565,623.166077 654.680908,622.851135 
	C654.922424,623.318359 654.741394,623.632080 654.291260,624.024414 
z"/>
<path fill="#FEFEFD" opacity="1.000000" stroke="none" 
	d="
M574.037415,424.699554 
	C573.834167,424.760193 573.540710,424.559875 573.141907,424.109314 
	C573.340088,424.052246 573.643677,424.245422 574.037415,424.699554 
z"/>
<path fill="#FEFEFD" opacity="1.000000" stroke="none" 
	d="
M330.960144,607.040283 
	C330.640320,606.888123 330.347260,606.721985 330.011658,606.296997 
	C329.969116,606.038208 329.962463,606.021973 330.347595,605.849487 
	C330.807922,606.140930 330.883118,606.604858 330.958313,607.068848 
	C330.958282,607.068848 330.986877,607.026306 330.960144,607.040283 
z"/>
<path fill="#FFEFD5" opacity="1.000000" stroke="none" 
	d="
M290.303833,599.029907 
	C290.109589,598.595886 290.186615,598.100464 290.677429,597.818726 
	C290.919189,598.344482 290.747131,598.656494 290.303833,599.029907 
z"/>
<path fill="#FFEFD5" opacity="1.000000" stroke="none" 
	d="
M291.304382,598.029480 
	C291.109619,597.605957 291.186676,597.120789 291.677948,596.831970 
	C291.920166,597.341492 291.748199,597.654663 291.304382,598.029480 
z"/>
<path fill="#FFEFD5" opacity="1.000000" stroke="none" 
	d="
M292.301025,597.030640 
	C292.111450,596.607727 292.194550,596.123291 292.684906,595.833679 
	C292.919312,596.342041 292.746490,596.655579 292.301025,597.030640 
z"/>
<path fill="#FFEFD5" opacity="1.000000" stroke="none" 
	d="
M293.300415,596.031128 
	C293.110504,595.594604 293.192322,595.097229 293.682556,594.817627 
	C293.917999,595.347046 293.745056,595.658630 293.300415,596.031128 
z"/>
<path fill="#4C3322" opacity="1.000000" stroke="none" 
	d="
M331.187744,606.723816 
	C330.883118,606.604858 330.807922,606.140930 330.335968,605.860840 
	C328.470306,604.204590 327.001434,602.364502 325.236664,600.788452 
	C324.529694,599.942078 324.118622,598.831665 323.323242,597.882080 
	C323.053772,597.922546 323.291656,597.744019 323.266083,597.689880 
	C313.779297,577.606140 317.685242,556.387268 318.202332,535.510315 
	C318.392792,527.819763 323.045685,522.122864 329.497192,518.269897 
	C334.323181,515.387634 339.519379,513.125305 345.170044,510.320740 
	C356.448181,505.564758 367.165680,501.207886 377.744293,496.536469 
	C384.327667,493.629303 387.314972,488.306000 387.131256,481.032867 
	C386.947144,473.743195 387.328094,466.433624 386.971588,459.156738 
	C386.834320,456.354675 385.346863,453.618774 384.278809,450.512024 
	C377.317291,445.021118 370.382172,447.745331 369.408386,456.080048 
	C369.065735,459.012909 369.376770,462.022156 369.284332,465.454315 
	C369.179321,475.468231 369.179321,485.024353 369.179321,495.035126 
	C362.601074,495.035126 356.807465,495.035126 351.013855,495.035126 
	C340.065552,495.035126 329.117218,495.035126 317.450287,495.035126 
	C317.528839,476.963806 315.705048,459.200714 323.303772,442.213196 
	C326.136139,438.464111 329.339050,434.973419 332.243591,431.211823 
	C333.580475,430.251404 335.215790,429.561890 337.057739,428.585480 
	C339.619873,427.071991 341.975372,425.845398 344.144531,424.274780 
	C344.945801,423.885742 345.933441,423.840729 346.944611,423.365417 
	C354.246033,421.775818 361.486176,420.186859 368.809357,419.543823 
	C385.702789,418.060486 402.321350,419.397583 418.565918,426.092102 
	C436.761902,434.757111 442.868835,450.188751 442.957275,468.643768 
	C443.175079,514.095825 443.078217,559.549377 443.101715,605.002380 
	C443.102142,605.810669 443.025421,606.618958 442.970520,607.709229 
	C425.082367,607.709229 407.356384,607.709229 389.244446,607.709229 
	C389.244446,604.781860 389.244446,601.857605 389.244446,597.997803 
	C375.032410,610.207458 359.667816,615.496704 341.383118,611.046875 
	C339.941132,610.667358 338.911285,610.261047 337.550720,609.799927 
	C335.285706,608.622925 333.351440,607.500854 331.187744,606.723816 
M387.094177,546.500000 
	C387.094177,538.099915 387.094177,529.699829 387.094177,520.916321 
	C386.041809,521.369141 385.577576,521.487976 385.204590,521.741150 
	C370.368591,531.813477 363.399506,556.437012 370.550171,573.067566 
	C372.426514,577.431458 375.795227,578.564880 379.875977,577.567383 
	C384.668060,576.396179 386.984467,572.836487 387.060242,567.987915 
	C387.166931,561.160095 387.091705,554.329468 387.094177,546.500000 
z"/>
<path fill="#402E22" opacity="1.000000" stroke="none" 
	d="
M462.381958,580.365234 
	C467.551666,577.721436 472.344421,575.072937 477.367493,572.976074 
	C480.356903,571.728088 481.873871,570.186829 482.015564,566.816895 
	C482.547028,554.177429 483.318512,541.548035 483.987396,528.914246 
	C484.308990,522.839478 489.988617,517.704529 496.010010,518.325012 
	C500.226776,518.759460 503.335114,520.754700 503.490387,525.490845 
	C504.084259,543.601929 504.627136,561.714783 505.172211,579.827454 
	C505.467651,589.644470 505.719940,599.462891 506.008209,609.280212 
	C506.385468,622.126160 502.765594,633.915222 496.416962,644.927795 
	C495.020782,647.349670 493.379852,649.825378 491.271210,651.578064 
	C489.663025,652.914734 486.914429,654.034363 485.093994,653.576660 
	C483.760468,653.241394 482.544281,650.273865 482.257416,648.334290 
	C481.267975,641.644775 480.686798,634.893921 479.999756,628.161316 
	C479.795258,626.157166 480.071381,624.381104 476.854095,624.411316 
	C466.412811,624.509338 456.204193,617.563965 453.041748,608.670532 
	C449.289429,598.118225 451.816803,589.414734 460.929047,581.524841 
	C461.306274,581.198181 461.710358,580.902649 462.381958,580.365234 
M474.935181,579.037842 
	C464.078827,584.577454 460.142487,593.521729 463.751709,604.145508 
	C464.919556,607.583069 467.228790,609.886597 470.697662,609.244934 
	C474.013245,608.631592 479.585449,607.087280 479.848602,605.312134 
	C481.187897,596.277893 481.125610,587.035889 481.596497,576.957825 
	C478.762512,577.822388 477.236115,578.288086 474.935181,579.037842 
z"/>
<path fill="#402E22" opacity="1.000000" stroke="none" 
	d="
M575.711914,603.955933 
	C581.475159,598.945801 586.840454,594.032043 592.345520,589.280090 
	C593.794495,588.029358 595.675781,587.279419 597.358521,586.299500 
	C596.865051,588.007080 596.771484,589.990784 595.813721,591.377747 
	C589.210205,600.940979 582.972839,610.834045 575.564148,619.745117 
	C565.977905,631.275208 550.923950,632.115234 539.026672,622.844116 
	C525.278625,612.130798 519.112366,589.055054 525.290100,570.414612 
	C529.266235,558.417114 535.928040,547.912842 544.165710,538.366394 
	C546.987671,535.096069 550.365051,533.723877 554.721130,533.893860 
	C563.928040,534.253052 572.558655,535.764709 579.329468,542.859741 
	C585.990295,549.839539 586.027588,558.049438 578.962097,564.761230 
	C572.615662,570.789978 565.016907,574.258850 556.272644,575.224487 
	C548.638428,576.067627 547.327820,577.771240 549.231934,585.170227 
	C551.261292,593.055786 555.826294,599.284790 562.747620,603.654480 
	C566.820618,606.225891 571.048462,607.055542 575.711914,603.955933 
M572.492249,558.533936 
	C573.803833,551.469604 571.618896,546.014893 566.313843,543.109497 
	C562.182800,540.847046 559.333130,541.906372 557.679626,546.234558 
	C556.974915,548.079407 555.935974,549.806885 555.337158,551.679810 
	C553.295776,558.063904 551.382568,564.489014 549.341431,571.156616 
	C560.891846,571.025635 567.370361,567.493713 572.492249,558.533936 
z"/>
<path fill="#FFEFD5" opacity="1.000000" stroke="none" 
	d="
M350.974792,495.399841 
	C356.807465,495.035126 362.601074,495.035126 369.179321,495.035126 
	C369.179321,485.024353 369.179321,475.468231 369.599854,465.388306 
	C371.509094,463.582123 373.076782,462.379639 374.470764,461.001465 
	C377.848450,457.662109 381.145203,454.240936 384.474579,450.852722 
	C385.346863,453.618774 386.834320,456.354675 386.971588,459.156738 
	C387.328094,466.433624 386.947144,473.743195 387.131256,481.032867 
	C387.314972,488.306000 384.327667,493.629303 377.744293,496.536469 
	C367.165680,501.207886 356.448181,505.564758 345.410278,510.065125 
	C346.999420,505.305359 348.967590,500.534973 350.974792,495.399841 
z"/>
<path fill="#FFEFD5" opacity="1.000000" stroke="none" 
	d="
M387.094238,547.000000 
	C387.091705,554.329468 387.166931,561.160095 387.060242,567.987915 
	C386.984467,572.836487 384.668060,576.396179 379.875977,577.567383 
	C375.795227,578.564880 372.426514,577.431458 370.550171,573.067566 
	C363.399506,556.437012 370.368591,531.813477 385.204590,521.741150 
	C385.577576,521.487976 386.041809,521.369141 387.094177,520.916321 
	C387.094177,529.699829 387.094177,538.099915 387.094238,547.000000 
z"/>
<path fill="#FEFEFD" opacity="1.000000" stroke="none" 
	d="
M384.278809,450.512024 
	C381.145203,454.240936 377.848450,457.662109 374.470764,461.001465 
	C373.076782,462.379639 371.509094,463.582123 369.704895,464.930542 
	C369.376770,462.022156 369.065735,459.012909 369.408386,456.080048 
	C370.382172,447.745331 377.317291,445.021118 384.278809,450.512024 
z"/>
<path fill="#FFEFD5" opacity="1.000000" stroke="none" 
	d="
M475.322449,578.895813 
	C477.236115,578.288086 478.762512,577.822388 481.596497,576.957825 
	C481.125610,587.035889 481.187897,596.277893 479.848602,605.312134 
	C479.585449,607.087280 474.013245,608.631592 470.697662,609.244934 
	C467.228790,609.886597 464.919556,607.583069 463.751709,604.145508 
	C460.142487,593.521729 464.078827,584.577454 475.322449,578.895813 
z"/>
<path fill="#FFEFD5" opacity="1.000000" stroke="none" 
	d="
M572.315063,558.890381 
	C567.370361,567.493713 560.891846,571.025635 549.341431,571.156616 
	C551.382568,564.489014 553.295776,558.063904 555.337158,551.679810 
	C555.935974,549.806885 556.974915,548.079407 557.679626,546.234558 
	C559.333130,541.906372 562.182800,540.847046 566.313843,543.109497 
	C571.618896,546.014893 573.803833,551.469604 572.315063,558.890381 
z"/>
</svg>